<mxfile host="app.diagrams.net" agent="Mozilla/5.0 (Windows NT 10.0; Win64; x64) AppleWebKit/537.36 (KHTML, like Gecko) Chrome/136.0.0.0 Safari/537.36" version="27.0.3">
  <diagram name="PÃ¡gina-1" id="Roh5DeaUwdwDcN9hR8X1">
    <mxGraphModel dx="4877" dy="1873" grid="1" gridSize="10" guides="1" tooltips="1" connect="1" arrows="1" fold="1" page="1" pageScale="1" pageWidth="827" pageHeight="1169" math="0" shadow="0">
      <root>
        <mxCell id="0" />
        <mxCell id="1" parent="0" />
        <mxCell id="jLFk8ZR3Sxxu4QvvtV1Y-114" style="edgeStyle=orthogonalEdgeStyle;rounded=0;orthogonalLoop=1;jettySize=auto;html=1;exitX=1;exitY=0.5;exitDx=0;exitDy=0;entryX=0;entryY=0.5;entryDx=0;entryDy=0;" edge="1" parent="1" source="jLFk8ZR3Sxxu4QvvtV1Y-1" target="jLFk8ZR3Sxxu4QvvtV1Y-103">
          <mxGeometry relative="1" as="geometry" />
        </mxCell>
        <mxCell id="jLFk8ZR3Sxxu4QvvtV1Y-115" style="edgeStyle=orthogonalEdgeStyle;rounded=0;orthogonalLoop=1;jettySize=auto;html=1;exitX=1;exitY=0.5;exitDx=0;exitDy=0;entryX=0;entryY=0.5;entryDx=0;entryDy=0;" edge="1" parent="1" source="jLFk8ZR3Sxxu4QvvtV1Y-1" target="jLFk8ZR3Sxxu4QvvtV1Y-102">
          <mxGeometry relative="1" as="geometry" />
        </mxCell>
        <mxCell id="jLFk8ZR3Sxxu4QvvtV1Y-116" style="edgeStyle=orthogonalEdgeStyle;rounded=0;orthogonalLoop=1;jettySize=auto;html=1;exitX=1;exitY=0.5;exitDx=0;exitDy=0;entryX=0;entryY=0.5;entryDx=0;entryDy=0;" edge="1" parent="1" source="jLFk8ZR3Sxxu4QvvtV1Y-1" target="jLFk8ZR3Sxxu4QvvtV1Y-104">
          <mxGeometry relative="1" as="geometry" />
        </mxCell>
        <mxCell id="jLFk8ZR3Sxxu4QvvtV1Y-121" style="edgeStyle=orthogonalEdgeStyle;rounded=0;orthogonalLoop=1;jettySize=auto;html=1;exitX=1;exitY=0.5;exitDx=0;exitDy=0;entryX=0;entryY=0.5;entryDx=0;entryDy=0;" edge="1" parent="1" source="jLFk8ZR3Sxxu4QvvtV1Y-1" target="jLFk8ZR3Sxxu4QvvtV1Y-120">
          <mxGeometry relative="1" as="geometry" />
        </mxCell>
        <mxCell id="jLFk8ZR3Sxxu4QvvtV1Y-1" value="Editorial" style="rounded=1;arcSize=10;whiteSpace=wrap;html=1;align=center;" vertex="1" parent="1">
          <mxGeometry x="640" y="420" width="100" height="40" as="geometry" />
        </mxCell>
        <mxCell id="jLFk8ZR3Sxxu4QvvtV1Y-45" style="edgeStyle=orthogonalEdgeStyle;rounded=0;orthogonalLoop=1;jettySize=auto;html=1;exitX=0.5;exitY=0;exitDx=0;exitDy=0;entryX=1;entryY=0.5;entryDx=0;entryDy=0;" edge="1" parent="1" source="jLFk8ZR3Sxxu4QvvtV1Y-2" target="jLFk8ZR3Sxxu4QvvtV1Y-43">
          <mxGeometry relative="1" as="geometry" />
        </mxCell>
        <mxCell id="jLFk8ZR3Sxxu4QvvtV1Y-46" style="edgeStyle=orthogonalEdgeStyle;rounded=0;orthogonalLoop=1;jettySize=auto;html=1;exitX=0.5;exitY=0;exitDx=0;exitDy=0;entryX=1;entryY=0.5;entryDx=0;entryDy=0;" edge="1" parent="1" source="jLFk8ZR3Sxxu4QvvtV1Y-2" target="jLFk8ZR3Sxxu4QvvtV1Y-41">
          <mxGeometry relative="1" as="geometry" />
        </mxCell>
        <mxCell id="jLFk8ZR3Sxxu4QvvtV1Y-47" style="edgeStyle=orthogonalEdgeStyle;rounded=0;orthogonalLoop=1;jettySize=auto;html=1;exitX=0.5;exitY=0;exitDx=0;exitDy=0;entryX=1;entryY=0.5;entryDx=0;entryDy=0;" edge="1" parent="1" source="jLFk8ZR3Sxxu4QvvtV1Y-2" target="jLFk8ZR3Sxxu4QvvtV1Y-42">
          <mxGeometry relative="1" as="geometry" />
        </mxCell>
        <mxCell id="jLFk8ZR3Sxxu4QvvtV1Y-48" style="edgeStyle=orthogonalEdgeStyle;rounded=0;orthogonalLoop=1;jettySize=auto;html=1;exitX=0.5;exitY=0;exitDx=0;exitDy=0;entryX=1;entryY=0.5;entryDx=0;entryDy=0;" edge="1" parent="1" source="jLFk8ZR3Sxxu4QvvtV1Y-2" target="jLFk8ZR3Sxxu4QvvtV1Y-44">
          <mxGeometry relative="1" as="geometry" />
        </mxCell>
        <mxCell id="jLFk8ZR3Sxxu4QvvtV1Y-119" style="edgeStyle=orthogonalEdgeStyle;rounded=0;orthogonalLoop=1;jettySize=auto;html=1;exitX=0.5;exitY=0;exitDx=0;exitDy=0;entryX=1;entryY=0.5;entryDx=0;entryDy=0;" edge="1" parent="1" source="jLFk8ZR3Sxxu4QvvtV1Y-2" target="jLFk8ZR3Sxxu4QvvtV1Y-117">
          <mxGeometry relative="1" as="geometry" />
        </mxCell>
        <mxCell id="jLFk8ZR3Sxxu4QvvtV1Y-2" value="Clientes" style="rounded=1;arcSize=10;whiteSpace=wrap;html=1;align=center;" vertex="1" parent="1">
          <mxGeometry x="260" y="420" width="100" height="40" as="geometry" />
        </mxCell>
        <mxCell id="jLFk8ZR3Sxxu4QvvtV1Y-138" style="edgeStyle=orthogonalEdgeStyle;rounded=0;orthogonalLoop=1;jettySize=auto;html=1;exitX=0.5;exitY=1;exitDx=0;exitDy=0;entryX=1;entryY=0.5;entryDx=0;entryDy=0;" edge="1" parent="1" source="jLFk8ZR3Sxxu4QvvtV1Y-3" target="jLFk8ZR3Sxxu4QvvtV1Y-126">
          <mxGeometry relative="1" as="geometry" />
        </mxCell>
        <mxCell id="jLFk8ZR3Sxxu4QvvtV1Y-139" style="edgeStyle=orthogonalEdgeStyle;rounded=0;orthogonalLoop=1;jettySize=auto;html=1;exitX=0.5;exitY=1;exitDx=0;exitDy=0;entryX=1;entryY=0.5;entryDx=0;entryDy=0;" edge="1" parent="1" source="jLFk8ZR3Sxxu4QvvtV1Y-3" target="jLFk8ZR3Sxxu4QvvtV1Y-86">
          <mxGeometry relative="1" as="geometry" />
        </mxCell>
        <mxCell id="jLFk8ZR3Sxxu4QvvtV1Y-142" style="edgeStyle=orthogonalEdgeStyle;rounded=0;orthogonalLoop=1;jettySize=auto;html=1;exitX=0.5;exitY=1;exitDx=0;exitDy=0;entryX=1;entryY=0.5;entryDx=0;entryDy=0;" edge="1" parent="1" source="jLFk8ZR3Sxxu4QvvtV1Y-3" target="jLFk8ZR3Sxxu4QvvtV1Y-141">
          <mxGeometry relative="1" as="geometry" />
        </mxCell>
        <mxCell id="jLFk8ZR3Sxxu4QvvtV1Y-3" value="Inventario" style="shape=ext;margin=3;double=1;whiteSpace=wrap;html=1;align=center;" vertex="1" parent="1">
          <mxGeometry x="640" y="920" width="100" height="40" as="geometry" />
        </mxCell>
        <mxCell id="jLFk8ZR3Sxxu4QvvtV1Y-27" style="edgeStyle=orthogonalEdgeStyle;rounded=0;orthogonalLoop=1;jettySize=auto;html=1;exitX=0.5;exitY=0;exitDx=0;exitDy=0;entryX=0.5;entryY=1;entryDx=0;entryDy=0;" edge="1" parent="1" source="jLFk8ZR3Sxxu4QvvtV1Y-4" target="jLFk8ZR3Sxxu4QvvtV1Y-26">
          <mxGeometry relative="1" as="geometry" />
        </mxCell>
        <mxCell id="jLFk8ZR3Sxxu4QvvtV1Y-32" style="edgeStyle=orthogonalEdgeStyle;rounded=0;orthogonalLoop=1;jettySize=auto;html=1;exitX=0.5;exitY=1;exitDx=0;exitDy=0;entryX=0.5;entryY=0;entryDx=0;entryDy=0;" edge="1" parent="1" source="jLFk8ZR3Sxxu4QvvtV1Y-4" target="jLFk8ZR3Sxxu4QvvtV1Y-31">
          <mxGeometry relative="1" as="geometry" />
        </mxCell>
        <mxCell id="jLFk8ZR3Sxxu4QvvtV1Y-95" style="edgeStyle=orthogonalEdgeStyle;rounded=0;orthogonalLoop=1;jettySize=auto;html=1;exitX=1;exitY=0.5;exitDx=0;exitDy=0;entryX=0;entryY=0.5;entryDx=0;entryDy=0;" edge="1" parent="1" source="jLFk8ZR3Sxxu4QvvtV1Y-4" target="jLFk8ZR3Sxxu4QvvtV1Y-94">
          <mxGeometry relative="1" as="geometry" />
        </mxCell>
        <mxCell id="jLFk8ZR3Sxxu4QvvtV1Y-96" style="edgeStyle=orthogonalEdgeStyle;rounded=0;orthogonalLoop=1;jettySize=auto;html=1;exitX=1;exitY=0.5;exitDx=0;exitDy=0;entryX=0;entryY=0.5;entryDx=0;entryDy=0;" edge="1" parent="1" source="jLFk8ZR3Sxxu4QvvtV1Y-4" target="jLFk8ZR3Sxxu4QvvtV1Y-88">
          <mxGeometry relative="1" as="geometry" />
        </mxCell>
        <mxCell id="jLFk8ZR3Sxxu4QvvtV1Y-97" style="edgeStyle=orthogonalEdgeStyle;rounded=0;orthogonalLoop=1;jettySize=auto;html=1;exitX=1;exitY=0.5;exitDx=0;exitDy=0;entryX=0;entryY=0.5;entryDx=0;entryDy=0;" edge="1" parent="1" source="jLFk8ZR3Sxxu4QvvtV1Y-4" target="jLFk8ZR3Sxxu4QvvtV1Y-89">
          <mxGeometry relative="1" as="geometry" />
        </mxCell>
        <mxCell id="jLFk8ZR3Sxxu4QvvtV1Y-98" style="edgeStyle=orthogonalEdgeStyle;rounded=0;orthogonalLoop=1;jettySize=auto;html=1;exitX=1;exitY=0.5;exitDx=0;exitDy=0;entryX=0;entryY=0.5;entryDx=0;entryDy=0;" edge="1" parent="1" source="jLFk8ZR3Sxxu4QvvtV1Y-4" target="jLFk8ZR3Sxxu4QvvtV1Y-90">
          <mxGeometry relative="1" as="geometry" />
        </mxCell>
        <mxCell id="jLFk8ZR3Sxxu4QvvtV1Y-99" style="edgeStyle=orthogonalEdgeStyle;rounded=0;orthogonalLoop=1;jettySize=auto;html=1;exitX=1;exitY=0.5;exitDx=0;exitDy=0;entryX=0;entryY=0.5;entryDx=0;entryDy=0;" edge="1" parent="1" source="jLFk8ZR3Sxxu4QvvtV1Y-4" target="jLFk8ZR3Sxxu4QvvtV1Y-91">
          <mxGeometry relative="1" as="geometry" />
        </mxCell>
        <mxCell id="jLFk8ZR3Sxxu4QvvtV1Y-100" style="edgeStyle=orthogonalEdgeStyle;rounded=0;orthogonalLoop=1;jettySize=auto;html=1;exitX=1;exitY=0.5;exitDx=0;exitDy=0;entryX=0;entryY=0.5;entryDx=0;entryDy=0;" edge="1" parent="1" source="jLFk8ZR3Sxxu4QvvtV1Y-4" target="jLFk8ZR3Sxxu4QvvtV1Y-92">
          <mxGeometry relative="1" as="geometry" />
        </mxCell>
        <mxCell id="jLFk8ZR3Sxxu4QvvtV1Y-101" style="edgeStyle=orthogonalEdgeStyle;rounded=0;orthogonalLoop=1;jettySize=auto;html=1;exitX=1;exitY=0.5;exitDx=0;exitDy=0;entryX=0;entryY=0.5;entryDx=0;entryDy=0;" edge="1" parent="1" source="jLFk8ZR3Sxxu4QvvtV1Y-4" target="jLFk8ZR3Sxxu4QvvtV1Y-93">
          <mxGeometry relative="1" as="geometry" />
        </mxCell>
        <mxCell id="jLFk8ZR3Sxxu4QvvtV1Y-125" style="edgeStyle=orthogonalEdgeStyle;rounded=0;orthogonalLoop=1;jettySize=auto;html=1;exitX=1;exitY=0.5;exitDx=0;exitDy=0;entryX=0;entryY=0.5;entryDx=0;entryDy=0;" edge="1" parent="1" source="jLFk8ZR3Sxxu4QvvtV1Y-4" target="jLFk8ZR3Sxxu4QvvtV1Y-124">
          <mxGeometry relative="1" as="geometry" />
        </mxCell>
        <mxCell id="jLFk8ZR3Sxxu4QvvtV1Y-137" style="edgeStyle=orthogonalEdgeStyle;rounded=0;orthogonalLoop=1;jettySize=auto;html=1;exitX=1;exitY=0.5;exitDx=0;exitDy=0;entryX=0;entryY=0.5;entryDx=0;entryDy=0;" edge="1" parent="1" source="jLFk8ZR3Sxxu4QvvtV1Y-4" target="jLFk8ZR3Sxxu4QvvtV1Y-136">
          <mxGeometry relative="1" as="geometry" />
        </mxCell>
        <mxCell id="jLFk8ZR3Sxxu4QvvtV1Y-4" value="Libro" style="shape=ext;margin=3;double=1;whiteSpace=wrap;html=1;align=center;" vertex="1" parent="1">
          <mxGeometry x="640" y="660" width="100" height="40" as="geometry" />
        </mxCell>
        <mxCell id="jLFk8ZR3Sxxu4QvvtV1Y-23" style="edgeStyle=orthogonalEdgeStyle;rounded=0;orthogonalLoop=1;jettySize=auto;html=1;exitX=1;exitY=0.5;exitDx=0;exitDy=0;entryX=0.5;entryY=1;entryDx=0;entryDy=0;" edge="1" parent="1" source="jLFk8ZR3Sxxu4QvvtV1Y-5" target="jLFk8ZR3Sxxu4QvvtV1Y-36">
          <mxGeometry relative="1" as="geometry">
            <mxPoint x="480" y="590" as="targetPoint" />
          </mxGeometry>
        </mxCell>
        <mxCell id="jLFk8ZR3Sxxu4QvvtV1Y-24" value="(1,N)" style="edgeLabel;html=1;align=center;verticalAlign=middle;resizable=0;points=[];" vertex="1" connectable="0" parent="jLFk8ZR3Sxxu4QvvtV1Y-23">
          <mxGeometry x="-0.6067" y="-2" relative="1" as="geometry">
            <mxPoint as="offset" />
          </mxGeometry>
        </mxCell>
        <mxCell id="jLFk8ZR3Sxxu4QvvtV1Y-80" style="edgeStyle=orthogonalEdgeStyle;rounded=0;orthogonalLoop=1;jettySize=auto;html=1;exitX=0.5;exitY=1;exitDx=0;exitDy=0;entryX=1;entryY=0.5;entryDx=0;entryDy=0;" edge="1" parent="1" source="jLFk8ZR3Sxxu4QvvtV1Y-5" target="jLFk8ZR3Sxxu4QvvtV1Y-77">
          <mxGeometry relative="1" as="geometry" />
        </mxCell>
        <mxCell id="jLFk8ZR3Sxxu4QvvtV1Y-81" style="edgeStyle=orthogonalEdgeStyle;rounded=0;orthogonalLoop=1;jettySize=auto;html=1;exitX=0.5;exitY=1;exitDx=0;exitDy=0;entryX=1;entryY=0.5;entryDx=0;entryDy=0;" edge="1" parent="1" source="jLFk8ZR3Sxxu4QvvtV1Y-5" target="jLFk8ZR3Sxxu4QvvtV1Y-78">
          <mxGeometry relative="1" as="geometry" />
        </mxCell>
        <mxCell id="jLFk8ZR3Sxxu4QvvtV1Y-123" style="edgeStyle=orthogonalEdgeStyle;rounded=0;orthogonalLoop=1;jettySize=auto;html=1;exitX=0.5;exitY=1;exitDx=0;exitDy=0;entryX=1;entryY=0.5;entryDx=0;entryDy=0;" edge="1" parent="1" source="jLFk8ZR3Sxxu4QvvtV1Y-5" target="jLFk8ZR3Sxxu4QvvtV1Y-122">
          <mxGeometry relative="1" as="geometry" />
        </mxCell>
        <mxCell id="jLFk8ZR3Sxxu4QvvtV1Y-129" style="edgeStyle=orthogonalEdgeStyle;rounded=0;orthogonalLoop=1;jettySize=auto;html=1;exitX=0.5;exitY=1;exitDx=0;exitDy=0;entryX=1;entryY=0.5;entryDx=0;entryDy=0;" edge="1" parent="1" source="jLFk8ZR3Sxxu4QvvtV1Y-5" target="jLFk8ZR3Sxxu4QvvtV1Y-128">
          <mxGeometry relative="1" as="geometry" />
        </mxCell>
        <mxCell id="jLFk8ZR3Sxxu4QvvtV1Y-5" value="Pedido" style="shape=ext;margin=3;double=1;whiteSpace=wrap;html=1;align=center;" vertex="1" parent="1">
          <mxGeometry x="260" y="692" width="100" height="40" as="geometry" />
        </mxCell>
        <mxCell id="jLFk8ZR3Sxxu4QvvtV1Y-7" style="edgeStyle=orthogonalEdgeStyle;rounded=0;orthogonalLoop=1;jettySize=auto;html=1;" edge="1" parent="1" source="jLFk8ZR3Sxxu4QvvtV1Y-6" target="jLFk8ZR3Sxxu4QvvtV1Y-2">
          <mxGeometry relative="1" as="geometry" />
        </mxCell>
        <mxCell id="jLFk8ZR3Sxxu4QvvtV1Y-16" value="(1,1)" style="edgeLabel;html=1;align=center;verticalAlign=middle;resizable=0;points=[];" vertex="1" connectable="0" parent="jLFk8ZR3Sxxu4QvvtV1Y-7">
          <mxGeometry x="0.4286" y="-1" relative="1" as="geometry">
            <mxPoint x="-1" as="offset" />
          </mxGeometry>
        </mxCell>
        <mxCell id="jLFk8ZR3Sxxu4QvvtV1Y-8" style="edgeStyle=orthogonalEdgeStyle;rounded=0;orthogonalLoop=1;jettySize=auto;html=1;" edge="1" parent="1" source="jLFk8ZR3Sxxu4QvvtV1Y-6" target="jLFk8ZR3Sxxu4QvvtV1Y-5">
          <mxGeometry relative="1" as="geometry" />
        </mxCell>
        <mxCell id="jLFk8ZR3Sxxu4QvvtV1Y-6" value="Realiza" style="shape=rhombus;perimeter=rhombusPerimeter;whiteSpace=wrap;html=1;align=center;" vertex="1" parent="1">
          <mxGeometry x="250" y="540" width="120" height="60" as="geometry" />
        </mxCell>
        <mxCell id="jLFk8ZR3Sxxu4QvvtV1Y-19" value="(0,N)" style="edgeLabel;html=1;align=center;verticalAlign=middle;resizable=0;points=[];" vertex="1" connectable="0" parent="1">
          <mxGeometry x="310.00000000000006" y="640" as="geometry" />
        </mxCell>
        <mxCell id="jLFk8ZR3Sxxu4QvvtV1Y-22" style="edgeStyle=orthogonalEdgeStyle;rounded=0;orthogonalLoop=1;jettySize=auto;html=1;exitX=1;exitY=0.5;exitDx=0;exitDy=0;entryX=0;entryY=0.5;entryDx=0;entryDy=0;" edge="1" parent="1" source="jLFk8ZR3Sxxu4QvvtV1Y-36" target="jLFk8ZR3Sxxu4QvvtV1Y-4">
          <mxGeometry relative="1" as="geometry">
            <mxPoint x="540" y="560" as="sourcePoint" />
          </mxGeometry>
        </mxCell>
        <mxCell id="jLFk8ZR3Sxxu4QvvtV1Y-25" value="(1,N)" style="edgeLabel;html=1;align=center;verticalAlign=middle;resizable=0;points=[];" vertex="1" connectable="0" parent="jLFk8ZR3Sxxu4QvvtV1Y-22">
          <mxGeometry x="0.6894" y="1" relative="1" as="geometry">
            <mxPoint as="offset" />
          </mxGeometry>
        </mxCell>
        <mxCell id="jLFk8ZR3Sxxu4QvvtV1Y-28" style="edgeStyle=orthogonalEdgeStyle;rounded=0;orthogonalLoop=1;jettySize=auto;html=1;exitX=0.5;exitY=0;exitDx=0;exitDy=0;entryX=0.5;entryY=1;entryDx=0;entryDy=0;" edge="1" parent="1" source="jLFk8ZR3Sxxu4QvvtV1Y-26" target="jLFk8ZR3Sxxu4QvvtV1Y-1">
          <mxGeometry relative="1" as="geometry" />
        </mxCell>
        <mxCell id="jLFk8ZR3Sxxu4QvvtV1Y-26" value="Pertenece" style="shape=rhombus;perimeter=rhombusPerimeter;whiteSpace=wrap;html=1;align=center;" vertex="1" parent="1">
          <mxGeometry x="630" y="530" width="120" height="60" as="geometry" />
        </mxCell>
        <mxCell id="jLFk8ZR3Sxxu4QvvtV1Y-29" value="(1,N)" style="edgeLabel;html=1;align=center;verticalAlign=middle;resizable=0;points=[];" vertex="1" connectable="0" parent="1">
          <mxGeometry x="690" y="640" as="geometry" />
        </mxCell>
        <mxCell id="jLFk8ZR3Sxxu4QvvtV1Y-30" value="(1,N)" style="edgeLabel;html=1;align=center;verticalAlign=middle;resizable=0;points=[];" vertex="1" connectable="0" parent="1">
          <mxGeometry x="680" y="590" as="geometry">
            <mxPoint x="15" y="-110" as="offset" />
          </mxGeometry>
        </mxCell>
        <mxCell id="jLFk8ZR3Sxxu4QvvtV1Y-33" style="edgeStyle=orthogonalEdgeStyle;rounded=0;orthogonalLoop=1;jettySize=auto;html=1;exitX=0.5;exitY=1;exitDx=0;exitDy=0;entryX=0.5;entryY=0;entryDx=0;entryDy=0;" edge="1" parent="1" source="jLFk8ZR3Sxxu4QvvtV1Y-31" target="jLFk8ZR3Sxxu4QvvtV1Y-3">
          <mxGeometry relative="1" as="geometry" />
        </mxCell>
        <mxCell id="jLFk8ZR3Sxxu4QvvtV1Y-31" value="Existe" style="shape=rhombus;perimeter=rhombusPerimeter;whiteSpace=wrap;html=1;align=center;" vertex="1" parent="1">
          <mxGeometry x="630" y="780" width="120" height="60" as="geometry" />
        </mxCell>
        <mxCell id="jLFk8ZR3Sxxu4QvvtV1Y-34" value="(1,N)" style="edgeLabel;html=1;align=center;verticalAlign=middle;resizable=0;points=[];" vertex="1" connectable="0" parent="1">
          <mxGeometry x="690" y="720" as="geometry" />
        </mxCell>
        <mxCell id="jLFk8ZR3Sxxu4QvvtV1Y-35" value="(0,1)" style="edgeLabel;html=1;align=center;verticalAlign=middle;resizable=0;points=[];" vertex="1" connectable="0" parent="1">
          <mxGeometry x="690" y="900" as="geometry" />
        </mxCell>
        <mxCell id="jLFk8ZR3Sxxu4QvvtV1Y-143" style="edgeStyle=orthogonalEdgeStyle;rounded=0;orthogonalLoop=1;jettySize=auto;html=1;exitX=0.5;exitY=0;exitDx=0;exitDy=0;entryX=1;entryY=0.5;entryDx=0;entryDy=0;" edge="1" parent="1" source="jLFk8ZR3Sxxu4QvvtV1Y-36" target="jLFk8ZR3Sxxu4QvvtV1Y-134">
          <mxGeometry relative="1" as="geometry">
            <Array as="points">
              <mxPoint x="515" y="540" />
              <mxPoint x="515" y="450" />
            </Array>
          </mxGeometry>
        </mxCell>
        <mxCell id="jLFk8ZR3Sxxu4QvvtV1Y-144" style="edgeStyle=orthogonalEdgeStyle;rounded=0;orthogonalLoop=1;jettySize=auto;html=1;exitX=0.5;exitY=0;exitDx=0;exitDy=0;entryX=1;entryY=0.5;entryDx=0;entryDy=0;" edge="1" parent="1" source="jLFk8ZR3Sxxu4QvvtV1Y-36" target="jLFk8ZR3Sxxu4QvvtV1Y-130">
          <mxGeometry relative="1" as="geometry">
            <Array as="points">
              <mxPoint x="515" y="540" />
              <mxPoint x="515" y="395" />
            </Array>
          </mxGeometry>
        </mxCell>
        <mxCell id="jLFk8ZR3Sxxu4QvvtV1Y-145" style="edgeStyle=orthogonalEdgeStyle;rounded=0;orthogonalLoop=1;jettySize=auto;html=1;exitX=0.5;exitY=0;exitDx=0;exitDy=0;entryX=1;entryY=0.5;entryDx=0;entryDy=0;" edge="1" parent="1" source="jLFk8ZR3Sxxu4QvvtV1Y-36" target="jLFk8ZR3Sxxu4QvvtV1Y-131">
          <mxGeometry relative="1" as="geometry">
            <Array as="points">
              <mxPoint x="515" y="540" />
              <mxPoint x="515" y="340" />
            </Array>
          </mxGeometry>
        </mxCell>
        <mxCell id="jLFk8ZR3Sxxu4QvvtV1Y-146" style="edgeStyle=orthogonalEdgeStyle;rounded=0;orthogonalLoop=1;jettySize=auto;html=1;exitX=0.5;exitY=0;exitDx=0;exitDy=0;entryX=1;entryY=0.5;entryDx=0;entryDy=0;" edge="1" parent="1" source="jLFk8ZR3Sxxu4QvvtV1Y-36" target="jLFk8ZR3Sxxu4QvvtV1Y-140">
          <mxGeometry relative="1" as="geometry">
            <Array as="points">
              <mxPoint x="515" y="540" />
              <mxPoint x="515" y="285" />
            </Array>
          </mxGeometry>
        </mxCell>
        <mxCell id="jLFk8ZR3Sxxu4QvvtV1Y-36" value="Contiene" style="shape=associativeEntity;whiteSpace=wrap;html=1;align=center;" vertex="1" parent="1">
          <mxGeometry x="430" y="540" width="140" height="60" as="geometry" />
        </mxCell>
        <mxCell id="jLFk8ZR3Sxxu4QvvtV1Y-37" value="Items" style="text;html=1;align=center;verticalAlign=middle;resizable=0;points=[];autosize=1;strokeColor=none;fillColor=none;" vertex="1" parent="1">
          <mxGeometry x="420" y="518" width="50" height="30" as="geometry" />
        </mxCell>
        <mxCell id="jLFk8ZR3Sxxu4QvvtV1Y-38" value="(1,N)" style="edgeLabel;html=1;align=center;verticalAlign=middle;resizable=0;points=[];" vertex="1" connectable="0" parent="1">
          <mxGeometry x="420" y="692" as="geometry">
            <mxPoint x="80" y="-74" as="offset" />
          </mxGeometry>
        </mxCell>
        <mxCell id="jLFk8ZR3Sxxu4QvvtV1Y-39" value="(1,N)" style="edgeLabel;html=1;align=center;verticalAlign=middle;resizable=0;points=[];" vertex="1" connectable="0" parent="1">
          <mxGeometry x="430" y="700" as="geometry">
            <mxPoint x="158" y="-141" as="offset" />
          </mxGeometry>
        </mxCell>
        <mxCell id="jLFk8ZR3Sxxu4QvvtV1Y-53" style="edgeStyle=orthogonalEdgeStyle;rounded=0;orthogonalLoop=1;jettySize=auto;html=1;exitX=0;exitY=0.5;exitDx=0;exitDy=0;entryX=1;entryY=0.5;entryDx=0;entryDy=0;" edge="1" parent="1" source="jLFk8ZR3Sxxu4QvvtV1Y-41" target="jLFk8ZR3Sxxu4QvvtV1Y-52">
          <mxGeometry relative="1" as="geometry" />
        </mxCell>
        <mxCell id="jLFk8ZR3Sxxu4QvvtV1Y-54" style="edgeStyle=orthogonalEdgeStyle;rounded=0;orthogonalLoop=1;jettySize=auto;html=1;exitX=0;exitY=0.5;exitDx=0;exitDy=0;entryX=1;entryY=0.5;entryDx=0;entryDy=0;" edge="1" parent="1" source="jLFk8ZR3Sxxu4QvvtV1Y-41" target="jLFk8ZR3Sxxu4QvvtV1Y-49">
          <mxGeometry relative="1" as="geometry" />
        </mxCell>
        <mxCell id="jLFk8ZR3Sxxu4QvvtV1Y-55" style="edgeStyle=orthogonalEdgeStyle;rounded=0;orthogonalLoop=1;jettySize=auto;html=1;exitX=0;exitY=0.5;exitDx=0;exitDy=0;entryX=1;entryY=0.5;entryDx=0;entryDy=0;" edge="1" parent="1" source="jLFk8ZR3Sxxu4QvvtV1Y-41" target="jLFk8ZR3Sxxu4QvvtV1Y-50">
          <mxGeometry relative="1" as="geometry" />
        </mxCell>
        <mxCell id="jLFk8ZR3Sxxu4QvvtV1Y-41" value="Direccion" style="ellipse;whiteSpace=wrap;html=1;align=center;" vertex="1" parent="1">
          <mxGeometry x="160" y="180" width="100" height="40" as="geometry" />
        </mxCell>
        <mxCell id="jLFk8ZR3Sxxu4QvvtV1Y-42" value="Telefono" style="ellipse;whiteSpace=wrap;html=1;align=center;" vertex="1" parent="1">
          <mxGeometry x="160" y="130" width="100" height="40" as="geometry" />
        </mxCell>
        <mxCell id="jLFk8ZR3Sxxu4QvvtV1Y-43" value="Nombre" style="ellipse;whiteSpace=wrap;html=1;align=center;" vertex="1" parent="1">
          <mxGeometry x="160" y="230" width="100" height="40" as="geometry" />
        </mxCell>
        <mxCell id="jLFk8ZR3Sxxu4QvvtV1Y-44" value="Email" style="ellipse;whiteSpace=wrap;html=1;align=center;" vertex="1" parent="1">
          <mxGeometry x="160" y="80" width="100" height="40" as="geometry" />
        </mxCell>
        <mxCell id="jLFk8ZR3Sxxu4QvvtV1Y-49" value="Barrio" style="ellipse;whiteSpace=wrap;html=1;align=center;dashed=1;" vertex="1" parent="1">
          <mxGeometry y="180" width="100" height="40" as="geometry" />
        </mxCell>
        <mxCell id="jLFk8ZR3Sxxu4QvvtV1Y-50" value="Ciudad" style="ellipse;whiteSpace=wrap;html=1;align=center;dashed=1;" vertex="1" parent="1">
          <mxGeometry y="130" width="100" height="40" as="geometry" />
        </mxCell>
        <mxCell id="jLFk8ZR3Sxxu4QvvtV1Y-51" value="Localidad" style="ellipse;whiteSpace=wrap;html=1;align=center;dashed=1;" vertex="1" parent="1">
          <mxGeometry y="80" width="100" height="40" as="geometry" />
        </mxCell>
        <mxCell id="jLFk8ZR3Sxxu4QvvtV1Y-52" value="Calle" style="ellipse;whiteSpace=wrap;html=1;align=center;dashed=1;" vertex="1" parent="1">
          <mxGeometry y="230" width="100" height="40" as="geometry" />
        </mxCell>
        <mxCell id="jLFk8ZR3Sxxu4QvvtV1Y-56" style="edgeStyle=orthogonalEdgeStyle;rounded=0;orthogonalLoop=1;jettySize=auto;html=1;exitX=0;exitY=0.5;exitDx=0;exitDy=0;entryX=1.01;entryY=0.325;entryDx=0;entryDy=0;entryPerimeter=0;" edge="1" parent="1" source="jLFk8ZR3Sxxu4QvvtV1Y-41" target="jLFk8ZR3Sxxu4QvvtV1Y-51">
          <mxGeometry relative="1" as="geometry" />
        </mxCell>
        <mxCell id="jLFk8ZR3Sxxu4QvvtV1Y-83" style="edgeStyle=orthogonalEdgeStyle;rounded=0;orthogonalLoop=1;jettySize=auto;html=1;exitX=0.5;exitY=0;exitDx=0;exitDy=0;exitPerimeter=0;entryX=1;entryY=0.5;entryDx=0;entryDy=0;" edge="1" parent="1" source="jLFk8ZR3Sxxu4QvvtV1Y-57" target="jLFk8ZR3Sxxu4QvvtV1Y-59">
          <mxGeometry relative="1" as="geometry" />
        </mxCell>
        <mxCell id="jLFk8ZR3Sxxu4QvvtV1Y-84" style="edgeStyle=orthogonalEdgeStyle;rounded=0;orthogonalLoop=1;jettySize=auto;html=1;exitX=0.01;exitY=0.97;exitDx=0;exitDy=0;exitPerimeter=0;entryX=1;entryY=0.5;entryDx=0;entryDy=0;" edge="1" parent="1" source="jLFk8ZR3Sxxu4QvvtV1Y-57" target="jLFk8ZR3Sxxu4QvvtV1Y-60">
          <mxGeometry relative="1" as="geometry" />
        </mxCell>
        <mxCell id="jLFk8ZR3Sxxu4QvvtV1Y-57" value="ID" style="strokeWidth=2;html=1;shape=mxgraph.flowchart.extract_or_measurement;whiteSpace=wrap;" vertex="1" parent="1">
          <mxGeometry x="180" y="315" width="60" height="50" as="geometry" />
        </mxCell>
        <mxCell id="jLFk8ZR3Sxxu4QvvtV1Y-73" style="edgeStyle=orthogonalEdgeStyle;rounded=0;orthogonalLoop=1;jettySize=auto;html=1;exitX=0;exitY=0.5;exitDx=0;exitDy=0;entryX=1;entryY=0.5;entryDx=0;entryDy=0;" edge="1" parent="1" source="jLFk8ZR3Sxxu4QvvtV1Y-59" target="jLFk8ZR3Sxxu4QvvtV1Y-67">
          <mxGeometry relative="1" as="geometry" />
        </mxCell>
        <mxCell id="jLFk8ZR3Sxxu4QvvtV1Y-74" style="edgeStyle=orthogonalEdgeStyle;rounded=0;orthogonalLoop=1;jettySize=auto;html=1;exitX=0;exitY=0.5;exitDx=0;exitDy=0;entryX=1;entryY=0.5;entryDx=0;entryDy=0;" edge="1" parent="1" source="jLFk8ZR3Sxxu4QvvtV1Y-59" target="jLFk8ZR3Sxxu4QvvtV1Y-66">
          <mxGeometry relative="1" as="geometry">
            <Array as="points">
              <mxPoint x="-10" y="340" />
              <mxPoint x="-10" y="290" />
            </Array>
          </mxGeometry>
        </mxCell>
        <mxCell id="jLFk8ZR3Sxxu4QvvtV1Y-59" value="Persona Natural" style="rounded=1;arcSize=10;whiteSpace=wrap;html=1;align=center;" vertex="1" parent="1">
          <mxGeometry x="30" y="320" width="100" height="40" as="geometry" />
        </mxCell>
        <mxCell id="jLFk8ZR3Sxxu4QvvtV1Y-72" style="edgeStyle=orthogonalEdgeStyle;rounded=0;orthogonalLoop=1;jettySize=auto;html=1;exitX=0;exitY=0.5;exitDx=0;exitDy=0;entryX=1;entryY=0.5;entryDx=0;entryDy=0;" edge="1" parent="1" source="jLFk8ZR3Sxxu4QvvtV1Y-60" target="jLFk8ZR3Sxxu4QvvtV1Y-64">
          <mxGeometry relative="1" as="geometry">
            <Array as="points">
              <mxPoint x="-10" y="430" />
              <mxPoint x="-10" y="460" />
            </Array>
          </mxGeometry>
        </mxCell>
        <mxCell id="jLFk8ZR3Sxxu4QvvtV1Y-75" style="edgeStyle=orthogonalEdgeStyle;rounded=0;orthogonalLoop=1;jettySize=auto;html=1;exitX=0;exitY=0.5;exitDx=0;exitDy=0;entryX=1;entryY=0.5;entryDx=0;entryDy=0;" edge="1" parent="1" source="jLFk8ZR3Sxxu4QvvtV1Y-60" target="jLFk8ZR3Sxxu4QvvtV1Y-65">
          <mxGeometry relative="1" as="geometry">
            <Array as="points">
              <mxPoint x="-10" y="430" />
              <mxPoint x="-10" y="410" />
            </Array>
          </mxGeometry>
        </mxCell>
        <mxCell id="jLFk8ZR3Sxxu4QvvtV1Y-60" value="Persona juridica" style="rounded=1;arcSize=10;whiteSpace=wrap;html=1;align=center;" vertex="1" parent="1">
          <mxGeometry x="30" y="410" width="100" height="40" as="geometry" />
        </mxCell>
        <mxCell id="jLFk8ZR3Sxxu4QvvtV1Y-64" value="RUES" style="ellipse;whiteSpace=wrap;html=1;align=center;" vertex="1" parent="1">
          <mxGeometry x="-130" y="440" width="100" height="40" as="geometry" />
        </mxCell>
        <mxCell id="jLFk8ZR3Sxxu4QvvtV1Y-65" value="NIT" style="ellipse;whiteSpace=wrap;html=1;align=center;" vertex="1" parent="1">
          <mxGeometry x="-130" y="390" width="100" height="40" as="geometry" />
        </mxCell>
        <mxCell id="jLFk8ZR3Sxxu4QvvtV1Y-66" value="DNI" style="ellipse;whiteSpace=wrap;html=1;align=center;" vertex="1" parent="1">
          <mxGeometry x="-130" y="270" width="100" height="40" as="geometry" />
        </mxCell>
        <mxCell id="jLFk8ZR3Sxxu4QvvtV1Y-67" value="RUT" style="ellipse;whiteSpace=wrap;html=1;align=center;" vertex="1" parent="1">
          <mxGeometry x="-130" y="320" width="100" height="40" as="geometry" />
        </mxCell>
        <mxCell id="jLFk8ZR3Sxxu4QvvtV1Y-77" value="Fecha" style="ellipse;whiteSpace=wrap;html=1;align=center;" vertex="1" parent="1">
          <mxGeometry x="180" y="870" width="100" height="40" as="geometry" />
        </mxCell>
        <mxCell id="jLFk8ZR3Sxxu4QvvtV1Y-78" value="Precio" style="ellipse;whiteSpace=wrap;html=1;align=center;" vertex="1" parent="1">
          <mxGeometry x="180" y="930" width="100" height="40" as="geometry" />
        </mxCell>
        <mxCell id="jLFk8ZR3Sxxu4QvvtV1Y-85" style="edgeStyle=orthogonalEdgeStyle;rounded=0;orthogonalLoop=1;jettySize=auto;html=1;exitX=0;exitY=0;exitDx=0;exitDy=0;entryX=0.78;entryY=0.5;entryDx=0;entryDy=0;entryPerimeter=0;" edge="1" parent="1" source="jLFk8ZR3Sxxu4QvvtV1Y-2" target="jLFk8ZR3Sxxu4QvvtV1Y-57">
          <mxGeometry relative="1" as="geometry">
            <Array as="points">
              <mxPoint x="260" y="340" />
            </Array>
          </mxGeometry>
        </mxCell>
        <mxCell id="jLFk8ZR3Sxxu4QvvtV1Y-86" value="Cantidad" style="ellipse;whiteSpace=wrap;html=1;align=center;" vertex="1" parent="1">
          <mxGeometry x="570" y="1050" width="100" height="40" as="geometry" />
        </mxCell>
        <mxCell id="jLFk8ZR3Sxxu4QvvtV1Y-88" value="Categoria" style="ellipse;whiteSpace=wrap;html=1;align=center;" vertex="1" parent="1">
          <mxGeometry x="910" y="659" width="100" height="40" as="geometry" />
        </mxCell>
        <mxCell id="jLFk8ZR3Sxxu4QvvtV1Y-89" value="ISBN" style="ellipse;whiteSpace=wrap;html=1;align=center;" vertex="1" parent="1">
          <mxGeometry x="910" y="729" width="100" height="40" as="geometry" />
        </mxCell>
        <mxCell id="jLFk8ZR3Sxxu4QvvtV1Y-90" value="aÃ±o publicacion" style="ellipse;whiteSpace=wrap;html=1;align=center;" vertex="1" parent="1">
          <mxGeometry x="910" y="801" width="100" height="40" as="geometry" />
        </mxCell>
        <mxCell id="jLFk8ZR3Sxxu4QvvtV1Y-91" value="Editorial" style="ellipse;whiteSpace=wrap;html=1;align=center;" vertex="1" parent="1">
          <mxGeometry x="910" y="859" width="100" height="40" as="geometry" />
        </mxCell>
        <mxCell id="jLFk8ZR3Sxxu4QvvtV1Y-92" value="Precio" style="ellipse;whiteSpace=wrap;html=1;align=center;" vertex="1" parent="1">
          <mxGeometry x="910" y="929" width="100" height="40" as="geometry" />
        </mxCell>
        <mxCell id="jLFk8ZR3Sxxu4QvvtV1Y-93" value="Autor" style="ellipse;whiteSpace=wrap;html=1;align=center;" vertex="1" parent="1">
          <mxGeometry x="910" y="1001" width="100" height="40" as="geometry" />
        </mxCell>
        <mxCell id="jLFk8ZR3Sxxu4QvvtV1Y-94" value="Titulo" style="ellipse;whiteSpace=wrap;html=1;align=center;" vertex="1" parent="1">
          <mxGeometry x="910" y="599" width="100" height="40" as="geometry" />
        </mxCell>
        <mxCell id="jLFk8ZR3Sxxu4QvvtV1Y-102" value="Nombre Contacto" style="ellipse;whiteSpace=wrap;html=1;align=center;" vertex="1" parent="1">
          <mxGeometry x="900" y="285" width="100" height="40" as="geometry" />
        </mxCell>
        <mxCell id="jLFk8ZR3Sxxu4QvvtV1Y-112" style="edgeStyle=orthogonalEdgeStyle;rounded=0;orthogonalLoop=1;jettySize=auto;html=1;exitX=1;exitY=0.5;exitDx=0;exitDy=0;entryX=0;entryY=0.5;entryDx=0;entryDy=0;" edge="1" parent="1" source="jLFk8ZR3Sxxu4QvvtV1Y-103" target="jLFk8ZR3Sxxu4QvvtV1Y-107">
          <mxGeometry relative="1" as="geometry" />
        </mxCell>
        <mxCell id="jLFk8ZR3Sxxu4QvvtV1Y-113" style="edgeStyle=orthogonalEdgeStyle;rounded=0;orthogonalLoop=1;jettySize=auto;html=1;exitX=1;exitY=0.5;exitDx=0;exitDy=0;entryX=0;entryY=0.5;entryDx=0;entryDy=0;" edge="1" parent="1" source="jLFk8ZR3Sxxu4QvvtV1Y-103" target="jLFk8ZR3Sxxu4QvvtV1Y-108">
          <mxGeometry relative="1" as="geometry" />
        </mxCell>
        <mxCell id="jLFk8ZR3Sxxu4QvvtV1Y-103" value="Telefono" style="ellipse;whiteSpace=wrap;html=1;align=center;" vertex="1" parent="1">
          <mxGeometry x="900" y="335" width="100" height="40" as="geometry" />
        </mxCell>
        <mxCell id="jLFk8ZR3Sxxu4QvvtV1Y-104" value="Email" style="ellipse;whiteSpace=wrap;html=1;align=center;" vertex="1" parent="1">
          <mxGeometry x="900" y="230" width="100" height="40" as="geometry" />
        </mxCell>
        <mxCell id="jLFk8ZR3Sxxu4QvvtV1Y-107" value="Tel1" style="ellipse;whiteSpace=wrap;html=1;align=center;dashed=1;" vertex="1" parent="1">
          <mxGeometry x="1040" y="305" width="100" height="40" as="geometry" />
        </mxCell>
        <mxCell id="jLFk8ZR3Sxxu4QvvtV1Y-108" value="Tel2" style="ellipse;whiteSpace=wrap;html=1;align=center;dashed=1;" vertex="1" parent="1">
          <mxGeometry x="1040" y="365" width="100" height="40" as="geometry" />
        </mxCell>
        <mxCell id="jLFk8ZR3Sxxu4QvvtV1Y-117" value="codigoCliente" style="ellipse;whiteSpace=wrap;html=1;align=center;fontStyle=4;" vertex="1" parent="1">
          <mxGeometry x="160" y="20" width="100" height="40" as="geometry" />
        </mxCell>
        <mxCell id="jLFk8ZR3Sxxu4QvvtV1Y-120" value="codigoEditorial" style="ellipse;whiteSpace=wrap;html=1;align=center;fontStyle=4;" vertex="1" parent="1">
          <mxGeometry x="900" y="390" width="100" height="40" as="geometry" />
        </mxCell>
        <mxCell id="jLFk8ZR3Sxxu4QvvtV1Y-122" value="codigoCliente" style="ellipse;whiteSpace=wrap;html=1;align=center;fontStyle=4;" vertex="1" parent="1">
          <mxGeometry x="180" y="770" width="100" height="40" as="geometry" />
        </mxCell>
        <mxCell id="jLFk8ZR3Sxxu4QvvtV1Y-124" value="codigoEditorial" style="ellipse;whiteSpace=wrap;html=1;align=center;fontStyle=4;" vertex="1" parent="1">
          <mxGeometry x="910" y="539" width="100" height="40" as="geometry" />
        </mxCell>
        <mxCell id="jLFk8ZR3Sxxu4QvvtV1Y-126" value="codigoEditorial" style="ellipse;whiteSpace=wrap;html=1;align=center;fontStyle=4;" vertex="1" parent="1">
          <mxGeometry x="570" y="1000" width="100" height="40" as="geometry" />
        </mxCell>
        <mxCell id="jLFk8ZR3Sxxu4QvvtV1Y-128" value="codigoPedido" style="ellipse;whiteSpace=wrap;html=1;align=center;fontStyle=4;" vertex="1" parent="1">
          <mxGeometry x="180" y="820" width="100" height="40" as="geometry" />
        </mxCell>
        <mxCell id="jLFk8ZR3Sxxu4QvvtV1Y-130" value="Cantidad" style="ellipse;whiteSpace=wrap;html=1;align=center;" vertex="1" parent="1">
          <mxGeometry x="395" y="375" width="100" height="40" as="geometry" />
        </mxCell>
        <mxCell id="jLFk8ZR3Sxxu4QvvtV1Y-131" value="Valor" style="ellipse;whiteSpace=wrap;html=1;align=center;" vertex="1" parent="1">
          <mxGeometry x="395" y="320" width="100" height="40" as="geometry" />
        </mxCell>
        <mxCell id="jLFk8ZR3Sxxu4QvvtV1Y-134" value="codigoPedido" style="ellipse;whiteSpace=wrap;html=1;align=center;fontStyle=4;" vertex="1" parent="1">
          <mxGeometry x="395" y="430" width="100" height="40" as="geometry" />
        </mxCell>
        <mxCell id="jLFk8ZR3Sxxu4QvvtV1Y-136" value="codigoLibro" style="ellipse;whiteSpace=wrap;html=1;align=center;fontStyle=4;" vertex="1" parent="1">
          <mxGeometry x="910" y="480" width="100" height="40" as="geometry" />
        </mxCell>
        <mxCell id="jLFk8ZR3Sxxu4QvvtV1Y-140" value="codigoLibro" style="ellipse;whiteSpace=wrap;html=1;align=center;fontStyle=4;" vertex="1" parent="1">
          <mxGeometry x="395" y="265" width="100" height="40" as="geometry" />
        </mxCell>
        <mxCell id="jLFk8ZR3Sxxu4QvvtV1Y-141" value="codigoLibro" style="ellipse;whiteSpace=wrap;html=1;align=center;fontStyle=4;" vertex="1" parent="1">
          <mxGeometry x="570" y="1100" width="100" height="40" as="geometry" />
        </mxCell>
      </root>
    </mxGraphModel>
  </diagram>
</mxfile>
